<svg width="316" height="113" fill="none" xmlns="http://www.w3.org/2000/svg"><path d="M74.5 73.4c-1.3 0-2.4-1.1-2.4-2.4V36.3c0-1.3 1.1-2.4 2.4-2.4h34.3c1.3 0 2.4 1.1 2.4 2.4V71c0 1.3-1.1 2.4-2.4 2.4H74.5Z" fill="#fff"/><path d="M108.8 35c.8 0 1.4.6 1.4 1.4V71c0 .8-.6 1.4-1.4 1.4H74.5c-.8 0-1.4-.6-1.4-1.4V36.3c0-.8.6-1.4 1.4-1.4h34.3v.1Zm0-2H74.5c-1.9 0-3.4 1.5-3.4 3.4V71c0 1.9 1.5 3.4 3.4 3.4h34.3c1.9 0 3.4-1.5 3.4-3.4V36.3c0-1.8-1.5-3.3-3.4-3.3Z" fill="#E8EAED"/><path d="M97.841 48.966a2.375 2.375 0 0 0-2.375 2.367h4.742a2.368 2.368 0 0 0-2.367-2.367ZM93.075 48.95a2.385 2.385 0 0 0 2.383 2.383v-4.758a2.379 2.379 0 0 0-2.383 2.375ZM95.45 53.7a3.973 3.973 0 0 1 3.967 3.967 3.967 3.967 0 0 1-3.967 3.958 3.973 3.973 0 0 1-3.966-3.966A3.966 3.966 0 0 1 95.45 53.7Zm0-1.583a5.551 5.551 0 0 0-5.55 5.55 5.551 5.551 0 0 0 5.55 5.55 5.551 5.551 0 0 0 5.55-5.55 5.551 5.551 0 0 0-5.55-5.55Z" fill="#F29900"/><path d="M89.933 61.625h-6.35v-7.75l2.154-4.917h2.77l1.877 4.252 1.203-1.204-1.362-3.087a.56.56 0 0 0 .483-.539v-2.034a.56.56 0 0 0-.554-.554h-6.016c-.301 0-.555.253-.555.554v2.027c0 .277.182.49.444.538l-1.964 4.465A.945.945 0 0 0 82 53.7v8.717c0 .435.356.791.792.791h8.724l-1.584-1.583Z" fill="#F29900"/><path d="M61.1 50.7H39.4c-1.2 0-2.1-1-2.1-2.1V26.7c0-1.2 1-2.1 2.1-2.1h21.7c1.2 0 2.1 1 2.1 2.1v21.9c.1 1.2-.9 2.1-2.1 2.1Z" fill="#E8EAED" stroke="#DADCE0" stroke-width="2" stroke-miterlimit="10"/><path d="M255.7 54.6c-.6 0-1.1-.5-1.1-1.1V31.6c0-.6.5-1.1 1.1-1.1h21.7c.6 0 1.1.5 1.1 1.1v21.9c0 .6-.5 1.1-1.1 1.1h-21.7Z" fill="#E8EAED"/><path d="M277.4 31.5c.1 0 .1.1.1.1v21.9c0 .1-.1.1-.1.1h-21.7c-.1 0-.1-.1-.1-.1V31.6c0-.1.1-.1.1-.1h21.7Zm0-2h-21.7c-1.2 0-2.1 1-2.1 2.1v21.9c0 1.2 1 2.1 2.1 2.1h21.7c1.2 0 2.1-1 2.1-2.1V31.6c0-1.1-.9-2.1-2.1-2.1Z" fill="#DADCE0"/><path d="M126.8 56.9c-1.4 0-2.5-1.1-2.5-2.5V18.9c0-1.4 1.1-2.5 2.5-2.5h35.4c1.4 0 2.5 1.1 2.5 2.5v35.5c0 1.4-1.1 2.5-2.5 2.5h-35.4Z" fill="#fff"/><path d="M162.1 17.5c.8 0 1.5.7 1.5 1.5v35.5c0 .8-.7 1.5-1.5 1.5h-35.4c-.8 0-1.5-.7-1.5-1.5V19c0-.8.7-1.5 1.5-1.5h35.4Zm0-2h-35.4c-1.9 0-3.5 1.5-3.5 3.5v35.5c0 1.9 1.5 3.5 3.5 3.5h35.4c1.9 0 3.5-1.5 3.5-3.5V19c0-2-1.6-3.5-3.5-3.5Z" fill="#E8EAED"/><path opacity=".5" d="M132.5 47h-8.7v3.3h8.7V47Z" fill="url(#a)"/><path d="M206.7 73.9c-1.4 0-2.5-1.1-2.5-2.5V35.8c0-1.4 1.1-2.5 2.5-2.5h35.4c1.4 0 2.5 1.1 2.5 2.5v35.6c0 1.4-1.1 2.5-2.5 2.5h-35.4Z" fill="#fff"/><path d="M222 50h-6v2.057h3l-3 3.886V58h6v-2.057h-3l3-3.886V50ZM230 45h-6v2.057h3l-3 3.886V53h6v-2.057h-3l3-3.886V45ZM232 55h-6v2.057h3l-3 3.886V63h6v-2.057h-3l3-3.886V55Z" fill="#6C5DF4"/><path d="M242.1 34.4c.8 0 1.5.7 1.5 1.5v35.6c0 .8-.7 1.5-1.5 1.5h-35.4c-.8 0-1.5-.7-1.5-1.5V35.9c0-.8.7-1.5 1.5-1.5h35.4Zm0-2h-35.4c-1.9 0-3.5 1.6-3.5 3.5v35.6c0 1.9 1.6 3.5 3.5 3.5h35.4c1.9 0 3.5-1.6 3.5-3.5V35.9c0-2-1.6-3.5-3.5-3.5Z" fill="#E8EAED"/><path fill-rule="evenodd" clip-rule="evenodd" d="M147.49 28.48c0 1.1-.9 2-2 2s-2-.9-2-2 .9-2 2-2 2 .9 2 2Zm-4.6 11.5-1 4.4-7-1.4.4-2 4.9 1 1.6-8.1-1.8.7v3.4h-2v-4.7l5.2-2.2c.15 0 .275-.025.4-.05s.25-.05.4-.05c.7 0 1.3.4 1.7 1l1 1.6c.8 1.4 2.4 2.4 4.3 2.4v2c-2.2 0-4.2-1-5.5-2.5l-.6 3 2.1 2v7.5h-2v-6l-2.1-2Z" fill="#00C3A6"/><path d="M219.147 59.946c.716-1.968-.895-3.938-2.864-3.938h-88.422v56.025h80.009c1.611 0 2.864-.716 3.222-2.148l8.055-49.939Z" fill="#BDC1C6"/><path d="M96 107.558h25.417v4.475H99.401L96 107.558Z" fill="url(#b)"/><path d="M135.378 45.09a5.195 5.195 0 0 0-5.191-5.19h-15.572a5.195 5.195 0 0 0-5.191 5.19v63.9c0 1.79 1.432 3.043 3.043 3.043h94.687c1.79 0 3.043-1.432 3.043-3.043V49.744c0-1.79-1.432-3.043-3.043-3.043H136.81c-.716 0-1.432-.716-1.432-1.61Z" fill="#EEEFF1"/><path d="M161.153 102.725c13.049 0 23.628-10.578 23.628-23.627 0-13.048-10.579-23.627-23.628-23.627-13.048 0-23.626 10.579-23.626 23.627 0 13.05 10.578 23.627 23.626 23.627Z" fill="#4285F4"/><path d="m161.392 86.712-4.047-4.042h-.001l4.048-4.042 5.485-5.478a2.845 2.845 0 0 1 2.024-.837c.764 0 1.483.297 2.023.837.541.54.839 1.257.839 2.021 0 .763-.298 1.48-.839 2.02l-2.271 2.269-7.261 7.252Zm-9.533-9.521a2.833 2.833 0 0 1-.838-2.02c0-.764.297-1.482.838-2.021a2.843 2.843 0 0 1 2.023-.837c.765 0 1.483.297 2.024.837l2.272 2.268-4.048 4.042.002.002-2.273-2.271Zm22.279-7.251a7.389 7.389 0 0 0-5.237-2.166 7.39 7.39 0 0 0-5.238 2.166l-2.271 2.268-2.272-2.268a7.39 7.39 0 0 0-5.238-2.166 7.389 7.389 0 0 0-5.237 2.166 7.39 7.39 0 0 0 0 10.462l2.273 2.27 3.213 3.208 7.261 7.25 10.475-10.46 2.271-2.268a7.39 7.39 0 0 0 0-10.462Z" fill="#AECBFA"/><path d="M179.6 41.4c-1.4 0-2.5-1.1-2.5-2.5V3.4c0-1.4 1.1-2.5 2.5-2.5h35.3c1.4 0 2.5 1.1 2.5 2.5v35.5c0 1.4-1.1 2.5-2.5 2.5h-35.3Z" fill="#fff"/><path d="M187 25v2h4.733L194 16.767 197 31h2l2-8.733L202.267 27H207v-2h-3.267L202 18h-2l-2 8.267L195 12h-2l-2.733 13H187Z" fill="#D93025"/><path d="M214.9 2c.8 0 1.5.7 1.5 1.5V39c0 .8-.7 1.5-1.5 1.5h-35.3c-.8 0-1.5-.7-1.5-1.5V3.5c0-.8.7-1.5 1.5-1.5h35.3Zm0-2h-35.3c-1.9 0-3.5 1.5-3.5 3.5V39c0 1.9 1.5 3.5 3.5 3.5h35.3c1.9 0 3.5-1.5 3.5-3.5V3.5c0-1.9-1.6-3.5-3.5-3.5Z" fill="#E8EAED"/><defs><linearGradient id="a" x1="123.79" y1="48.66" x2="132.54" y2="48.66" gradientUnits="userSpaceOnUse"><stop stop-color="#9AA0A6" stop-opacity="0"/><stop offset="1" stop-color="#9AA0A6"/></linearGradient><linearGradient id="b" x1="98.502" y1="109.856" x2="126.194" y2="109.856" gradientUnits="userSpaceOnUse"><stop stop-color="#BDC1C6" stop-opacity="0"/><stop offset=".968" stop-color="#BDC1C6"/></linearGradient></defs></svg>